<svg width="300" height="300" viewBox="0 0 300 300" fill="none" xmlns="http://www.w3.org/2000/svg">
<mask id="path-1-inside-1_108_37" fill="white">
<path d="M184.785 34.7851C212.374 43.1146 236.058 61.0672 251.531 85.3794C267.005 109.691 273.241 138.749 269.106 167.269C264.971 195.79 250.739 221.879 228.997 240.796C207.256 259.712 179.448 270.199 150.63 270.349C121.812 270.5 93.8963 260.305 71.958 241.618C50.0196 222.93 35.5152 196.991 31.0815 168.516C26.6479 140.04 32.5792 110.919 47.7974 86.4461C63.0156 61.9733 86.5102 43.7737 114.01 35.1557L121.208 58.1245C99.2081 65.0189 80.4125 79.5786 68.2379 99.1569C56.0634 118.735 51.3183 142.032 54.8652 164.812C58.4122 187.593 70.0157 208.344 87.5664 223.294C105.117 238.244 127.45 246.4 150.504 246.28C173.559 246.159 195.805 237.769 213.198 222.636C230.591 207.503 241.976 186.632 245.285 163.815C248.593 140.999 243.604 117.753 231.225 98.3034C218.846 78.8537 199.899 64.4916 177.828 57.828L184.785 34.7851Z"/>
</mask>
<path d="M184.785 34.7851C212.374 43.1146 236.058 61.0672 251.531 85.3794C267.005 109.691 273.241 138.749 269.106 167.269C264.971 195.79 250.739 221.879 228.997 240.796C207.256 259.712 179.448 270.199 150.63 270.349C121.812 270.5 93.8963 260.305 71.958 241.618C50.0196 222.93 35.5152 196.991 31.0815 168.516C26.6479 140.04 32.5792 110.919 47.7974 86.4461C63.0156 61.9733 86.5102 43.7737 114.01 35.1557L121.208 58.1245C99.2081 65.0189 80.4125 79.5786 68.2379 99.1569C56.0634 118.735 51.3183 142.032 54.8652 164.812C58.4122 187.593 70.0157 208.344 87.5664 223.294C105.117 238.244 127.45 246.4 150.504 246.28C173.559 246.159 195.805 237.769 213.198 222.636C230.591 207.503 241.976 186.632 245.285 163.815C248.593 140.999 243.604 117.753 231.225 98.3034C218.846 78.8537 199.899 64.4916 177.828 57.828L184.785 34.7851Z" stroke="#33474E" stroke-width="56" mask="url(#path-1-inside-1_108_37)"/>
<path fill-rule="evenodd" clip-rule="evenodd" d="M150.401 230.635H138.767V191.321L68.161 113.092H93.836L150.401 174.07V230.635ZM150.803 230.635H162.437V191.321L233.043 113.092H207.368L150.803 174.07V230.635Z" fill="#33474E"/>
<path d="M138.767 230.635H138.267V231.135H138.767V230.635ZM150.401 230.635V231.135H150.901V230.635H150.401ZM138.767 191.321H139.267V191.128L139.138 190.986L138.767 191.321ZM68.161 113.092V112.592H67.0362L67.7898 113.427L68.161 113.092ZM93.836 113.092L94.2025 112.752L94.0541 112.592H93.836V113.092ZM150.401 174.07H150.901V173.874L150.768 173.73L150.401 174.07ZM162.437 230.635V231.135H162.937V230.635H162.437ZM150.803 230.635H150.303V231.135H150.803V230.635ZM162.437 191.321L162.065 190.986L161.937 191.128V191.321H162.437ZM233.043 113.092L233.414 113.427L234.168 112.592H233.043V113.092ZM207.368 113.092V112.592H207.15L207.001 112.752L207.368 113.092ZM150.803 174.07L150.436 173.73L150.303 173.874V174.07H150.803ZM138.767 231.135H150.401V230.135H138.767V231.135ZM138.267 191.321V230.635H139.267V191.321H138.267ZM67.7898 113.427L138.396 191.656L139.138 190.986L68.5322 112.757L67.7898 113.427ZM93.836 112.592H68.161V113.592H93.836V112.592ZM150.768 173.73L94.2025 112.752L93.4694 113.432L150.034 174.41L150.768 173.73ZM150.901 230.635V174.07H149.901V230.635H150.901ZM162.437 230.135H150.803V231.135H162.437V230.135ZM161.937 191.321V230.635H162.937V191.321H161.937ZM232.672 112.757L162.065 190.986L162.808 191.656L233.414 113.427L232.672 112.757ZM207.368 113.592H233.043V112.592H207.368V113.592ZM151.169 174.41L207.734 113.432L207.001 112.752L150.436 173.73L151.169 174.41ZM151.303 230.635V174.07H150.303V230.635H151.303Z" fill="#33474E"/>
<mask id="path-4-inside-2_108_37" fill="white">
<path d="M197.339 95.4411C197.339 107.783 192.436 119.62 183.709 128.347C174.982 137.074 163.145 141.977 150.803 141.977C138.461 141.977 126.624 137.074 117.897 128.347C109.17 119.62 104.267 107.783 104.267 95.4411L127.535 95.4411C127.535 101.612 129.987 107.53 134.35 111.894C138.714 116.258 144.632 118.709 150.803 118.709C156.974 118.709 162.892 116.258 167.256 111.894C171.62 107.53 174.071 101.612 174.071 95.4411H197.339Z"/>
</mask>
<path d="M197.339 95.4411C197.339 107.783 192.436 119.62 183.709 128.347C174.982 137.074 163.145 141.977 150.803 141.977C138.461 141.977 126.624 137.074 117.897 128.347C109.17 119.62 104.267 107.783 104.267 95.4411L127.535 95.4411C127.535 101.612 129.987 107.53 134.35 111.894C138.714 116.258 144.632 118.709 150.803 118.709C156.974 118.709 162.892 116.258 167.256 111.894C171.62 107.53 174.071 101.612 174.071 95.4411H197.339Z" stroke="#33474E" stroke-width="56" mask="url(#path-4-inside-2_108_37)"/>
<circle cx="150.802" cy="92.2315" r="16.3492" fill="#33474E" stroke="#33474E"/>
<path fill-rule="evenodd" clip-rule="evenodd" d="M150.803 3.97513V3.57272C150.803 3.57272 137.163 28.8465 137.564 34.4629C137.964 40.0574 150.703 65.9523 150.803 66.1542V66.5567C150.803 66.5567 163.64 40.4806 164.041 34.8642C164.441 29.2691 150.906 4.16506 150.803 3.97513Z" fill="#33474E"/>
<path d="M150.803 3.97513H150.303V4.10138L150.363 4.2125L150.803 3.97513ZM150.803 3.57272H151.303L150.363 3.33526L150.803 3.57272ZM137.564 34.4629L137.066 34.4985L137.564 34.4629ZM150.803 66.1542H151.303V66.0378L151.251 65.9334L150.803 66.1542ZM150.803 66.5567H150.303L151.251 66.7776L150.803 66.5567ZM164.041 34.8642L164.54 34.8998L164.041 34.8642ZM151.303 3.97513V3.57272H150.303V3.97513H151.303ZM150.803 3.57272C150.363 3.33526 150.363 3.33538 150.363 3.33559C150.363 3.33579 150.363 3.3361 150.362 3.3365C150.362 3.3373 150.361 3.33848 150.361 3.34005C150.359 3.34317 150.356 3.34782 150.353 3.35396C150.346 3.36626 150.337 3.38455 150.324 3.40867C150.298 3.45692 150.259 3.52849 150.209 3.622C150.109 3.80902 149.962 4.08384 149.776 4.43548C149.403 5.13875 148.871 6.14938 148.234 7.37958C146.96 9.83964 145.265 13.1793 143.582 16.6958C141.9 20.2107 140.227 23.9097 138.997 27.0865C138.383 28.6744 137.877 30.1401 137.536 31.3917C137.199 32.6293 137.009 33.7073 137.066 34.4985L138.063 34.4273C138.019 33.8144 138.168 32.874 138.501 31.6544C138.829 30.4489 139.322 29.0186 139.93 27.4473C141.146 24.3056 142.807 20.6331 144.484 17.1275C146.161 13.6235 147.851 10.2937 149.122 7.83943C149.758 6.61246 150.288 5.6047 150.66 4.90387C150.845 4.55346 150.991 4.2798 151.091 4.09386C151.141 4.00089 151.179 3.92985 151.204 3.88212C151.217 3.85825 151.227 3.84021 151.233 3.82816C151.237 3.82214 151.239 3.81762 151.241 3.81461C151.242 3.81311 151.242 3.81199 151.243 3.81125C151.243 3.81088 151.243 3.81062 151.243 3.81043C151.243 3.81026 151.243 3.81019 150.803 3.57272ZM137.066 34.4985C137.12 35.2589 137.378 36.3219 137.766 37.571C138.158 38.8302 138.693 40.3133 139.322 41.9278C140.578 45.1572 142.215 48.934 143.84 52.5364C147.091 59.7423 150.303 66.2724 150.354 66.375L151.251 65.9334C151.202 65.8341 147.996 59.3158 144.752 52.1252C143.13 48.5293 141.501 44.7707 140.253 41.5651C139.63 39.962 139.103 38.5027 138.721 37.2741C138.336 36.0355 138.109 35.0655 138.063 34.4273L137.066 34.4985ZM151.303 66.5567V66.1542H150.303V66.5567H151.303ZM163.542 34.8286C163.497 35.4694 163.268 36.4445 162.88 37.6899C162.495 38.9251 161.965 40.3925 161.337 42.0041C160.082 45.2267 158.444 49.0036 156.816 52.6109C155.188 56.2171 153.572 59.6487 152.363 62.179C151.759 63.4441 151.257 64.4836 150.905 65.2068C150.73 65.5683 150.592 65.8508 150.498 66.0427C150.451 66.1387 150.415 66.2121 150.391 66.2614C150.378 66.2861 150.369 66.3047 150.363 66.3172C150.36 66.3234 150.358 66.3281 150.356 66.3313C150.355 66.3328 150.355 66.334 150.354 66.3347C150.354 66.3351 150.354 66.3354 150.354 66.3356C150.354 66.3358 150.354 66.3359 150.803 66.5567C151.251 66.7776 151.251 66.7774 151.251 66.7772C151.251 66.777 151.252 66.7767 151.252 66.7763C151.252 66.7755 151.253 66.7743 151.254 66.7727C151.255 66.7695 151.257 66.7647 151.261 66.7584C151.267 66.7457 151.276 66.7269 151.288 66.7021C151.313 66.6524 151.349 66.5786 151.396 66.4823C151.49 66.2895 151.629 66.0062 151.805 65.6438C152.157 64.919 152.66 63.8774 153.266 62.6101C154.477 60.0757 156.095 56.6372 157.727 53.0223C159.358 49.4085 161.005 45.6134 162.269 42.3671C162.901 40.7442 163.44 39.253 163.835 37.9872C164.226 36.7314 164.485 35.6631 164.54 34.8998L163.542 34.8286ZM150.363 4.2125C150.413 4.3052 153.818 10.6203 157.159 17.6084C158.83 21.1033 160.482 24.7585 161.689 27.8842C162.293 29.4475 162.783 30.8702 163.109 32.0694C163.438 33.2825 163.586 34.2181 163.542 34.8286L164.54 34.8998C164.596 34.1115 164.408 33.0387 164.074 31.8072C163.735 30.5619 163.233 29.1039 162.622 27.5239C161.401 24.363 159.737 20.6812 158.062 17.177C154.71 10.1669 151.296 3.83499 151.243 3.73775L150.363 4.2125Z" fill="#33474E"/>
</svg>
